<svg width="24" height="24" viewBox="0 0 24 24" fill="none"
  xmlns="http://www.w3.org/2000/svg">
  <g clip-path="url(#clip0_80417_5)">
    <path d="M11.6272 0.0618445C11.3353 0.241476 11.2748 0.56732 11.4634 0.939115C11.524 1.05608 11.5703 1.21065 11.5703 1.28585C11.5703 1.41117 11.5204 1.57409 11.467 1.6284C11.3922 1.70359 11.0718 2.17147 11.0718 2.20907C11.0718 2.23413 11.0576 2.25502 11.0433 2.25502C10.9935 2.25502 10.8404 2.65606 10.8083 2.86911C10.7977 2.94431 10.7763 3.06545 10.7656 3.13647C10.7336 3.30775 10.8048 3.67954 10.9223 3.96361C11.0113 4.18502 11.1466 4.36047 11.6699 4.94114C11.9477 5.2461 11.9904 5.36307 11.9477 5.70562C11.9299 5.87272 11.8693 6.04817 11.8159 6.0983C11.7696 6.14008 11.6771 6.44503 11.6771 6.54529C11.6771 6.68315 11.7981 6.95051 11.8978 7.0257C11.9441 7.05912 12.0367 7.11343 12.1079 7.14267C12.2218 7.18863 12.2503 7.18445 12.4283 7.08419C12.6028 6.97975 12.8164 6.71657 12.8164 6.5996C12.8164 6.57454 12.8306 6.55783 12.8449 6.55783C12.8805 6.55783 12.9944 6.28629 12.9944 6.20274C12.9944 6.16932 13.0086 6.14008 13.0264 6.14008C13.0976 6.14008 13.1582 5.42155 13.1012 5.2085C12.9588 4.64454 12.852 4.46909 12.2432 3.82158C12.0224 3.58764 11.9263 3.38294 11.9263 3.15318C11.9263 2.97355 12.0153 2.73125 12.1292 2.60593C12.1755 2.5558 12.2111 2.50567 12.2111 2.48896C12.2111 2.47225 12.2538 2.40959 12.3037 2.3511C12.4176 2.21742 12.6063 1.87069 12.674 1.67017C12.7416 1.48219 12.7416 1.11457 12.674 0.876453C12.4995 0.237299 11.9904 -0.159562 11.6272 0.0618445Z" fill="currentColor"/>
    <path d="M8.50119 1.3109C8.32673 1.39863 8.2306 1.52813 8.20568 1.70776C8.18432 1.85397 8.19856 1.92499 8.29113 2.14222C8.4193 2.443 8.42998 2.64769 8.33029 2.79808C7.871 3.47901 7.85676 3.50408 7.782 3.80903C7.64314 4.37717 7.78556 4.97037 8.17007 5.40901C8.38369 5.65548 8.69701 5.97297 8.72193 5.97297C8.73617 5.97297 8.77533 6.03981 8.8145 6.11918C8.8501 6.19855 8.89282 6.26539 8.90707 6.26539C8.92487 6.26539 8.93555 6.31134 8.93555 6.36565C8.93555 6.42413 8.95335 6.48262 8.97115 6.49515C9.01744 6.52857 9.01744 6.70403 8.97471 6.80011C8.8501 7.08 8.75753 7.3766 8.75753 7.51028C8.75753 7.94056 9.20257 8.25387 9.49808 8.03246C9.63338 7.92803 9.82564 7.68991 9.82564 7.61889C9.82564 7.58547 9.84344 7.56041 9.86124 7.56041C9.8826 7.56041 9.89684 7.52281 9.89684 7.47686C9.89684 7.43091 9.91108 7.39331 9.92533 7.39331C9.98585 7.39331 10.0749 6.89619 10.0749 6.54528C10.0749 5.84347 9.95737 5.61788 9.13849 4.74061C8.88214 4.4649 8.86434 4.43565 8.84298 4.23514C8.81806 3.99284 8.87146 3.81739 9.02456 3.62522C9.0744 3.56256 9.11357 3.4999 9.11357 3.48737C9.11357 3.47483 9.15273 3.41217 9.19901 3.35369C9.24886 3.29102 9.33075 3.14899 9.38415 3.03202C9.47316 2.84403 9.48384 2.77719 9.48384 2.46388C9.48028 2.15057 9.4696 2.08373 9.37703 1.89575C9.25598 1.6451 9.09932 1.41951 9.04592 1.41951C9.02456 1.41951 9.00676 1.4028 9.00676 1.38609C9.00676 1.35267 8.71837 1.24824 8.64004 1.25659C8.61868 1.25659 8.55459 1.28166 8.50119 1.3109Z" fill="currentColor"/>
    <path d="M14.9526 1.30673C14.6963 1.44459 14.6322 1.76626 14.7924 2.10463C14.9526 2.43883 14.917 2.56416 14.5467 3.05292C14.5004 3.11558 14.4328 3.22838 14.3972 3.30357C14.358 3.38294 14.3189 3.45396 14.3046 3.46649C14.2904 3.47902 14.2583 3.63359 14.237 3.80905C14.1622 4.38972 14.2655 4.77822 14.6108 5.21686C14.6927 5.31712 14.8102 5.4675 14.8743 5.55105C15.0131 5.72233 15.095 5.93121 15.095 6.10248C15.095 6.2111 15.0345 6.42415 14.9882 6.47428C14.885 6.59125 14.8422 6.98393 14.9206 7.14685C14.9775 7.27635 15.0879 7.39332 15.1484 7.39332C15.1769 7.39332 15.2018 7.41003 15.2018 7.4351C15.2018 7.54789 15.6077 7.38497 15.743 7.21787C15.8747 7.05913 16.0243 6.71239 16.124 6.34478C16.1738 6.16097 16.1774 5.73486 16.1275 5.70144C16.1097 5.68891 16.0919 5.63878 16.0919 5.59283C16.0919 5.45497 15.9032 5.09571 15.6896 4.82835C15.5757 4.69049 15.4582 4.52339 15.4226 4.45655C15.3905 4.39389 15.3514 4.34376 15.3371 4.34376C15.3229 4.34376 15.3086 4.21008 15.3086 4.05134C15.3086 3.88842 15.3229 3.75892 15.3371 3.75892C15.3514 3.75892 15.3941 3.69625 15.4333 3.62106C15.4689 3.55004 15.5187 3.46649 15.5365 3.44143C15.8391 3.06963 15.921 2.84822 15.9246 2.42212C15.9246 2.00437 15.8498 1.79132 15.597 1.48219C15.4226 1.26914 15.152 1.19812 14.9526 1.30673Z" fill="currentColor"/>
    <path d="M13.3541 6.85854C13.3078 6.88778 13.2366 6.98804 13.1938 7.07994C13.1547 7.17185 13.112 7.2554 13.1013 7.26793C13.0514 7.32641 12.9589 7.61884 12.9589 7.72328C12.9589 7.83189 12.9731 7.84442 13.1226 7.86949C13.2152 7.88202 13.4965 7.89455 13.7493 7.89455C14.002 7.89455 14.2798 7.91544 14.3688 7.9405C14.5788 8.00317 14.6215 7.95304 14.5041 7.79012C14.3972 7.64808 14.3047 7.42667 14.2228 7.11336C14.1907 6.99639 14.1409 6.88778 14.1124 6.87525C14.0875 6.86271 13.9237 6.84183 13.7528 6.82929C13.5285 6.81258 13.4146 6.82094 13.3541 6.85854Z" fill="currentColor"/>
    <path d="M10.94 7.03828C10.9151 7.0717 10.8937 7.11765 10.8937 7.14271C10.8937 7.1636 10.8831 7.18449 10.8688 7.18449C10.851 7.18449 10.8012 7.25551 10.7513 7.33906C10.7015 7.4226 10.584 7.58553 10.4843 7.69832L10.3063 7.90302L10.6267 7.87795C11.734 7.7944 11.7304 7.7944 11.6628 7.71503C11.6272 7.67743 11.588 7.64401 11.5702 7.64401C11.5168 7.64401 11.1145 7.15525 11.0896 7.06334C11.0646 6.96308 11.0005 6.95473 10.94 7.03828Z" fill="currentColor"/>
    <path d="M7.47584 7.0466C7.35479 7.07166 6.71037 7.22205 6.53235 7.268C6.07662 7.38915 5.95557 7.42257 5.90929 7.44346C5.77043 7.50194 5.59598 7.55625 5.47136 7.58549C5.40016 7.59803 5.32895 7.62727 5.31827 7.64816C5.30759 7.66904 5.2613 7.68575 5.21502 7.68575C5.16874 7.68575 5.12245 7.70246 5.11177 7.72335C5.10109 7.74424 5.03344 7.77348 4.96223 7.79019C4.89103 7.80272 4.80558 7.83196 4.77354 7.85285C4.70589 7.89045 4.59552 7.94476 4.37122 8.04919C4.27509 8.09097 4.20032 8.13692 4.20032 8.15363C4.20032 8.17452 4.17896 8.18705 4.1576 8.18705C4.11487 8.18705 3.73748 8.39592 3.70187 8.4377C3.67695 8.46694 3.54878 8.55885 3.48825 8.59227C3.45977 8.60898 3.42772 8.62986 3.41704 8.6424C3.40636 8.65911 3.33516 8.72177 3.25683 8.78861C3.05745 8.95988 2.63377 9.47371 2.63377 9.54473C2.63377 9.58651 2.55188 9.60739 2.28841 9.61993C1.92882 9.64081 1.74368 9.67006 1.61907 9.73272C1.5799 9.74943 1.46953 9.79956 1.36984 9.84133C0.82155 10.0711 0.262576 10.7604 0.109481 11.4037C-0.0364936 12.0094 -0.0364936 13.1457 0.109481 13.7431C0.155765 13.9269 0.255455 14.2152 0.287498 14.2444C0.298179 14.2569 0.319541 14.3071 0.333783 14.3572C0.348024 14.4115 0.376507 14.4533 0.394309 14.4533C0.41211 14.4533 0.426352 14.47 0.426352 14.495C0.426352 14.5869 0.906999 15.1634 0.985326 15.1634C1.01025 15.1634 1.03161 15.1802 1.03161 15.1969C1.03161 15.247 1.49802 15.5102 1.72588 15.5937C1.99647 15.694 2.38098 15.7483 2.79398 15.7483H3.16782V16.5337C3.16782 17.5989 3.23191 18.167 3.43841 18.9315C3.48469 19.1112 3.52385 19.2824 3.52385 19.32C3.52385 19.3535 3.54166 19.3827 3.55946 19.3827C3.58082 19.3827 3.59506 19.4119 3.59506 19.4454C3.59506 19.4788 3.6093 19.5414 3.63066 19.5832C3.64847 19.6208 3.69119 19.7294 3.72323 19.8213C3.75884 19.9132 3.798 19.9968 3.80868 20.0093C3.81936 20.0219 3.85853 20.1096 3.89769 20.2057C3.93685 20.3059 3.97958 20.3853 3.99738 20.3853C4.01162 20.3853 4.0223 20.4062 4.0223 20.4271C4.0223 20.5983 5.00852 21.8683 5.35031 22.1398C5.42152 22.1983 5.48205 22.2568 5.48205 22.2735C5.48205 22.2944 5.50341 22.3069 5.53189 22.3069C5.56037 22.3069 5.58886 22.3236 5.59598 22.3404C5.61022 22.3863 6.07662 22.7247 6.12291 22.7247C6.14071 22.7247 6.15851 22.7414 6.15851 22.7623C6.15851 22.7832 6.20836 22.8124 6.26532 22.8291C6.32585 22.8458 6.37213 22.8751 6.37213 22.896C6.37213 22.9168 6.40418 22.9336 6.44334 22.9336C6.4825 22.9336 6.51455 22.9503 6.51455 22.9753C6.51455 22.9962 6.53235 23.0171 6.55015 23.0171C6.57151 23.0171 6.66764 23.0631 6.77089 23.1215C6.87058 23.18 6.97383 23.226 6.99875 23.226C7.02368 23.226 7.0486 23.2385 7.05572 23.2552C7.06996 23.297 7.41175 23.4349 7.49008 23.4349C7.52213 23.4349 7.54705 23.4474 7.54705 23.4683C7.54705 23.5017 7.83544 23.5978 8.03838 23.6312C8.0989 23.6437 8.15231 23.6688 8.15231 23.6855C8.15231 23.7022 8.21283 23.7273 8.2876 23.7398C8.67924 23.8108 8.93202 23.861 9.04239 23.8986C9.27738 23.9737 10.8119 24.0155 12.5315 23.9946C14.3224 23.9696 14.7496 23.9445 15.2908 23.8317C15.4688 23.7941 15.6718 23.7565 15.7465 23.7398C15.8177 23.7273 15.8889 23.7022 15.8996 23.6813C15.9103 23.6604 15.953 23.6437 15.9958 23.6437C16.0848 23.6437 16.4693 23.5059 16.5049 23.4641C16.5191 23.4474 16.5583 23.4349 16.5868 23.4349C16.6437 23.4349 17.1279 23.2093 17.3522 23.0756C17.4092 23.0422 17.4769 23.0171 17.5053 23.0171C17.5303 23.0171 17.5516 23.0004 17.5516 22.9837C17.5516 22.967 17.6228 22.9168 17.7118 22.8751C17.8008 22.8291 17.8721 22.7832 17.8721 22.7665C17.8721 22.7497 17.9005 22.7247 17.9361 22.7121C18.0216 22.6787 18.2673 22.5075 18.3491 22.4239C18.3883 22.3821 18.4488 22.3404 18.4844 22.3236C18.52 22.3111 18.5485 22.2819 18.5485 22.261C18.5485 22.2401 18.5699 22.2234 18.5984 22.2234C18.6269 22.2234 18.6553 22.2109 18.6625 22.19C18.6696 22.1733 18.755 22.0813 18.8547 21.9853C19.1039 21.743 19.4707 21.3127 19.5988 21.1164C19.6558 21.0244 19.7306 20.9117 19.7662 20.8699C19.8018 20.8239 19.8374 20.7529 19.8516 20.7111C19.8623 20.6694 19.8872 20.6359 19.905 20.6359C19.9228 20.6359 19.9371 20.6067 19.9371 20.5733C19.9371 20.5399 19.9513 20.5106 19.9691 20.5106C19.9869 20.5106 20.0154 20.4688 20.0296 20.4145C20.0439 20.3644 20.0652 20.3143 20.0759 20.3017C20.0902 20.2892 20.14 20.1848 20.1898 20.072C20.2397 19.955 20.3002 19.8255 20.3216 19.7796C20.4462 19.5164 20.7203 18.5723 20.7203 18.4093C20.7203 18.3592 20.7346 18.2966 20.7524 18.2715C20.8093 18.2088 20.8627 17.3232 20.8627 16.5086V15.7483H21.2401C22.1445 15.7483 22.8174 15.4642 23.3265 14.8668C23.5045 14.658 23.8178 14.1232 23.8178 14.0272C23.8178 13.9937 23.8321 13.952 23.8499 13.9269C23.9923 13.7473 24.0564 12.0638 23.9389 11.5207C23.8428 11.0779 23.6719 10.727 23.387 10.4011C23.2126 10.2006 23.0239 10.0419 22.9206 10.0001C22.885 9.98337 22.8565 9.9583 22.8565 9.93741C22.8565 9.91653 22.8281 9.89982 22.7925 9.89982C22.7569 9.89982 22.7141 9.88311 22.6963 9.86222C22.675 9.84133 22.5646 9.79538 22.4471 9.75361C22.3296 9.71601 22.1979 9.66588 22.1516 9.64499C22.1053 9.6241 21.9273 9.60739 21.7528 9.60739C21.4751 9.60739 21.436 9.59904 21.4146 9.52802C21.3897 9.43194 21.0016 8.95988 20.8093 8.79278C20.731 8.72594 20.6598 8.65493 20.6491 8.6424C20.6384 8.62986 20.5744 8.58391 20.5067 8.53796C20.4391 8.49618 20.375 8.44605 20.3643 8.43352C20.3465 8.40846 19.6487 8.00742 19.492 7.9364C19.4529 7.91551 19.3425 7.86956 19.2428 7.83196C19.1467 7.79019 19.0327 7.74424 18.9936 7.72753C18.8868 7.6774 18.6233 7.57714 18.4417 7.51865C18.3527 7.48941 18.2495 7.45181 18.2103 7.4351C18.1711 7.41839 18.018 7.37244 17.8721 7.33484C17.7261 7.29725 17.5481 7.24712 17.4804 7.22623C17.3095 7.1761 16.8146 7.06749 16.6509 7.04242C16.5334 7.02571 16.4978 7.03824 16.4088 7.14686C16.3518 7.2137 16.3055 7.29725 16.3055 7.33067C16.3055 7.36409 16.2913 7.39333 16.2699 7.39333C16.2521 7.39333 16.2343 7.41422 16.2343 7.43928C16.2343 7.46435 16.2129 7.50612 16.1916 7.53954C16.1666 7.56878 16.1132 7.64398 16.0741 7.71082C16.0349 7.77348 15.9851 7.8445 15.9673 7.86956C15.9032 7.94476 15.8071 8.12021 15.8071 8.15363C15.8071 8.17452 15.8605 8.18705 15.9245 8.18705C15.9851 8.18705 16.1097 8.20794 16.1951 8.233C16.277 8.25389 16.4372 8.29149 16.5512 8.31237C16.7648 8.35415 16.925 8.39175 17.3202 8.50036C17.4591 8.53796 17.6228 8.57973 17.6869 8.59227C17.751 8.6048 17.8115 8.62986 17.8222 8.65075C17.8329 8.67164 17.8756 8.68835 17.9183 8.68835C17.9611 8.68835 18.0572 8.71341 18.1391 8.74683C18.2174 8.77607 18.3456 8.8262 18.4239 8.85127C18.5022 8.88051 18.5984 8.91811 18.6375 8.939C18.6767 8.95571 18.7906 9.00584 18.8868 9.04343C18.9864 9.08103 19.1502 9.1604 19.2535 9.21471C19.3567 9.26902 19.4564 9.31497 19.4742 9.31497C19.4956 9.31497 19.5098 9.33168 19.5098 9.35674C19.5098 9.37763 19.5347 9.39852 19.5632 9.39852C19.6985 9.39852 20.3607 10.0084 20.3643 10.1379C20.3643 10.163 20.3821 10.1922 20.407 10.2006C20.4319 10.2131 20.4569 10.3343 20.464 10.4972C20.4782 10.752 20.4711 10.798 20.3821 10.9567C20.3251 11.0528 20.2432 11.1698 20.1934 11.2157C20.1471 11.2617 20.0652 11.341 20.0118 11.3954C19.962 11.4455 19.8872 11.4998 19.848 11.5123C19.8089 11.529 19.7697 11.5541 19.759 11.5666C19.7448 11.5917 19.5953 11.6669 19.3425 11.7839C19.2962 11.8047 19.225 11.8382 19.1823 11.8591C18.9686 11.9593 18.7728 12.0303 18.7159 12.0303C18.6838 12.0303 18.6553 12.0429 18.6553 12.0596C18.6553 12.0805 18.5236 12.1306 18.3598 12.1724C18.1996 12.2141 18.0536 12.2643 18.0323 12.281C18.0145 12.2977 17.9326 12.3228 17.8543 12.3353C17.7759 12.3478 17.6015 12.3896 17.4626 12.4314C17.2312 12.494 17.1244 12.5191 16.6437 12.6152C16.5476 12.6361 16.2984 12.6737 16.0919 12.6987C15.8854 12.7238 15.6682 12.7656 15.6077 12.7865C15.5471 12.8073 15.4297 12.8241 15.3442 12.8241C15.2588 12.8241 15.0914 12.8449 14.9739 12.8658C14.0269 13.0496 10.3989 13.0496 9.22041 12.87C9.07444 12.8449 8.88218 12.8157 8.79317 12.8032C8.70416 12.7906 8.5119 12.7656 8.36593 12.7447C8.12738 12.7113 7.71794 12.6361 7.20881 12.5316C7.11269 12.5107 6.8777 12.4564 6.69256 12.4105C6.50743 12.3604 6.31873 12.3228 6.276 12.3228C6.22972 12.3228 6.19412 12.3019 6.19412 12.281C6.19412 12.2559 6.15851 12.2392 6.11223 12.2392C6.06594 12.2392 5.95913 12.2141 5.87012 12.1807C5.78468 12.1515 5.64226 12.1013 5.55325 12.0721C5.46424 12.047 5.36811 12.0094 5.33963 11.9886C5.30759 11.9718 5.22926 11.9426 5.16161 11.9259C5.04768 11.8967 5.01564 11.8799 4.84118 11.7797C4.80202 11.7546 4.75217 11.7379 4.73081 11.7379C4.68453 11.7379 4.32137 11.5332 4.11843 11.3912C3.50961 10.9693 3.40636 10.4262 3.8336 9.91653C3.93685 9.7912 4.03298 9.69094 4.05079 9.69094C4.06503 9.69094 4.11131 9.65752 4.15048 9.61575C4.24661 9.51967 4.44242 9.39852 4.50651 9.39852C4.53499 9.39852 4.55636 9.38599 4.55636 9.3651C4.55636 9.34839 4.63112 9.30244 4.72725 9.26066C4.81982 9.21471 4.92663 9.16458 4.9658 9.14787C5.18298 9.03926 5.54613 8.89722 5.59242 8.89722C5.62446 8.89722 5.66006 8.88469 5.6743 8.86798C5.69923 8.83874 5.93065 8.75936 6.15851 8.70506C6.20836 8.69253 6.27956 8.66746 6.31873 8.64657C6.35789 8.62569 6.43978 8.60062 6.49674 8.58391C6.70681 8.53378 7.10556 8.43352 7.26222 8.39175C7.45092 8.34162 7.6503 8.29566 7.99209 8.22465C8.13094 8.19958 8.24488 8.17034 8.252 8.16616C8.2698 8.14945 8.15231 7.61474 8.10246 7.4727C8.03838 7.3056 7.91732 7.13433 7.80695 7.06749C7.72863 7.01736 7.64674 7.01318 7.47584 7.0466ZM2.49135 11.0277C2.49135 11.0737 2.50916 11.1113 2.52696 11.1113C2.54832 11.1113 2.56256 11.1572 2.56256 11.2115C2.56256 11.2659 2.58036 11.3202 2.60528 11.3285C2.62665 11.3369 2.63733 11.3745 2.62665 11.4121C2.61241 11.4538 2.53408 11.4831 2.38454 11.4998C2.02851 11.5457 2.02139 11.5666 2.03563 12.4272C2.04631 13.2376 2.05699 13.2669 2.32402 13.4298C2.47355 13.5217 2.54476 13.5342 2.83315 13.5342H3.17138L3.1607 13.9603L3.15002 14.3906L2.77618 14.4031C2.56968 14.4115 2.31334 14.3948 2.20653 14.3697C2.01071 14.3154 1.99647 14.3112 1.77928 14.1817C1.63331 14.0982 1.28084 13.6763 1.28084 13.5927C1.28084 13.5593 1.27015 13.5342 1.25235 13.5342C1.18115 13.5342 1.13842 13.1583 1.13842 12.5358C1.13842 11.9301 1.14554 11.8549 1.22031 11.6878C1.31644 11.4622 1.61907 11.1113 1.71164 11.1113C1.74724 11.1113 1.77928 11.0904 1.77928 11.0695C1.77928 11.0444 1.81489 11.0277 1.86117 11.0277C1.9039 11.0277 1.96442 11.0068 1.9929 10.986C2.02139 10.9651 2.146 10.9442 2.27061 10.9442C2.46643 10.9442 2.49135 10.9525 2.49135 11.0277ZM22.0733 11.0027C22.3296 11.1155 22.6073 11.3076 22.6073 11.3745C22.6073 11.3954 22.6465 11.4705 22.6963 11.5457C22.7462 11.6209 22.7853 11.7128 22.7853 11.7504C22.7853 11.788 22.8031 11.8298 22.8209 11.8423C22.8708 11.8799 22.8672 13.2502 22.8174 13.3964C22.7034 13.718 22.6678 13.7849 22.5361 13.9394C22.237 14.2778 21.8917 14.4115 21.3007 14.4115H20.8984V13.977V13.5384L21.2117 13.5217C21.557 13.5008 21.7528 13.459 21.7528 13.4089C21.7528 13.388 21.7813 13.3629 21.8169 13.3504C21.849 13.3379 21.9059 13.2669 21.9415 13.1958C21.9914 13.0872 22.0021 12.9577 22.0021 12.3896C22.0021 11.7254 21.9985 11.7087 21.9166 11.6168C21.8596 11.5541 21.7635 11.5123 21.6389 11.4914C21.4787 11.4705 21.4502 11.4538 21.4573 11.3828C21.4716 11.2324 21.5143 11.0486 21.5499 10.9943C21.5962 10.9275 21.9131 10.9317 22.0733 11.0027ZM4.64536 13.0914C4.86255 13.1666 5.01564 13.2251 5.14381 13.2836C5.25062 13.3295 5.55325 13.4173 5.68855 13.4423C5.75263 13.4507 5.81316 13.4757 5.82384 13.4966C5.83452 13.5175 5.88793 13.5342 5.94489 13.5342C6.00186 13.5342 6.08374 13.5509 6.13003 13.5718C6.17631 13.5927 6.34009 13.6428 6.49674 13.6804C6.6534 13.718 6.83854 13.764 6.90618 13.7849C7.08064 13.835 7.4438 13.906 7.77847 13.9561C8.40865 14.0522 8.54751 14.0731 9.04239 14.1358C9.70462 14.2235 11.2071 14.3029 12.1221 14.3029C13.8417 14.3029 15.8925 14.0982 17.1422 13.8058C17.2027 13.7891 17.3202 13.764 17.4092 13.7431C17.4982 13.7222 17.6834 13.6763 17.8187 13.6387C17.9575 13.6011 18.1177 13.5635 18.1747 13.5509C18.2352 13.5384 18.3135 13.5133 18.3527 13.4924C18.3919 13.4716 18.5378 13.4256 18.6731 13.388C18.812 13.3504 18.9544 13.3003 18.9936 13.2794C19.1217 13.2167 19.403 13.1165 19.4564 13.1165C19.4813 13.1165 19.5098 13.0998 19.5169 13.0789C19.5241 13.058 19.5775 13.0329 19.6344 13.0246L19.7412 13.012L19.7377 15.3097C19.7377 16.7885 19.7199 17.6825 19.695 17.8161C19.6309 18.1754 19.581 18.3968 19.549 18.4845C19.5312 18.5305 19.4956 18.6349 19.4742 18.7143C19.4101 18.9274 19.1431 19.5665 19.1111 19.5832C19.0933 19.5916 19.0826 19.6166 19.0826 19.6417C19.0826 19.7085 18.7372 20.2558 18.5343 20.5064C18.2245 20.8908 18.0536 21.0704 17.7724 21.2918C17.662 21.3795 17.5659 21.4631 17.5587 21.4798C17.5516 21.5007 17.5231 21.5132 17.4947 21.5132C17.4662 21.5132 17.4448 21.5299 17.4448 21.5466C17.4448 21.5633 17.4021 21.6009 17.3487 21.626C17.2917 21.6511 17.2098 21.7054 17.16 21.7388C17.0211 21.8391 16.69 22.0145 16.6366 22.0145C16.6117 22.0145 16.5903 22.0312 16.5903 22.0479C16.5903 22.0688 16.4978 22.1148 16.3874 22.1565C16.2735 22.1941 16.1488 22.2443 16.1097 22.261C15.9637 22.332 15.654 22.4323 15.5721 22.4323C15.5293 22.4323 15.4795 22.449 15.4688 22.474C15.4581 22.4949 15.3798 22.5158 15.2944 22.5158C15.2125 22.5158 15.127 22.5367 15.1092 22.5576C15.0309 22.6495 13.4857 22.6913 11.4278 22.6662C9.50524 22.6411 9.23465 22.6244 8.82877 22.52C8.73976 22.4991 8.59023 22.4573 8.4941 22.4364C8.29828 22.3863 8.09178 22.3153 8.00989 22.2652C7.97785 22.2484 7.89952 22.2192 7.83188 22.2025C7.76423 22.1858 7.6859 22.1565 7.65386 22.1398C7.62538 22.1231 7.56129 22.0897 7.51144 22.0646C7.36191 21.9978 6.63916 21.5801 6.62136 21.555C6.61068 21.5383 6.54659 21.4923 6.47894 21.4464C6.4113 21.4046 6.31517 21.3252 6.26532 21.2709C6.21904 21.2208 6.15851 21.179 6.13359 21.179C6.10867 21.179 6.0873 21.1623 6.0873 21.1456C6.0873 21.1289 6.03746 21.0788 5.97693 21.037C5.85588 20.9534 5.26842 20.2809 5.26842 20.2224C5.26842 20.2057 5.22926 20.1346 5.17942 20.0678C5.12957 20.001 5.07973 19.9132 5.06905 19.8715C5.05836 19.8339 5.03344 19.8004 5.01564 19.8004C4.99784 19.8004 4.9836 19.7754 4.9836 19.742C4.9836 19.7085 4.96936 19.6751 4.95511 19.6668C4.90883 19.6459 4.55636 18.7686 4.55636 18.6725C4.55636 18.6266 4.54567 18.589 4.52787 18.589C4.51363 18.589 4.47091 18.4344 4.4353 18.2422C4.3997 18.0543 4.35698 17.8579 4.33917 17.8036C4.30357 17.695 4.29289 13.0204 4.33205 12.9786C4.34273 12.9619 4.37122 12.9661 4.39258 12.9828C4.41394 13.0037 4.52787 13.0538 4.64536 13.0914Z" fill="currentColor"/>
    <path d="M5.85585 16.0615C5.74548 16.1242 5.64223 16.2245 5.58883 16.3205C5.50694 16.4668 5.48202 16.5419 5.42149 16.826C5.40013 16.9346 5.50694 17.3774 5.55678 17.3774C5.57458 17.3774 5.58883 17.3983 5.58883 17.4234C5.58883 17.4902 5.72056 17.6197 5.88077 17.7158C6.04811 17.8161 6.35786 17.8203 6.53944 17.7242C6.74594 17.6114 6.93108 17.3607 6.99516 17.1017C7.04501 16.897 7.04501 16.8553 6.99516 16.684C6.91684 16.4166 6.87767 16.3373 6.7495 16.1994C6.5074 15.9362 6.16916 15.8819 5.85585 16.0615Z" fill="currentColor"/>
    <path d="M7.53278 17.9498C7.19098 18.0166 6.89903 18.5347 6.956 18.9775C6.97024 19.0861 6.99516 19.1822 7.01653 19.1947C7.03433 19.2114 7.04857 19.249 7.04857 19.2824C7.04857 19.4036 7.33696 19.6709 7.53634 19.7378C7.70367 19.7963 7.7464 19.7963 7.89949 19.7419C8.19144 19.6417 8.38014 19.4704 8.42286 19.2657C8.4371 19.2156 8.45847 19.1738 8.47627 19.1738C8.49407 19.1738 8.50831 19.0318 8.50831 18.8605C8.50831 18.5931 8.49407 18.5179 8.41218 18.3717C8.30181 18.1629 8.27689 18.1336 8.11667 18.0334C7.9885 17.9498 7.71435 17.9122 7.53278 17.9498Z" fill="currentColor"/>
    <path d="M11.1607 8.43775C11.0824 8.45864 10.883 8.47535 10.7157 8.47535C10.5483 8.47952 10.292 8.49623 10.146 8.5213C10 8.54219 9.71165 8.58396 9.50515 8.60903C8.85005 8.69258 8.21631 8.80119 8.04541 8.8555C7.97776 8.88056 7.86027 8.89727 7.78907 8.89727C7.71786 8.89727 7.65021 8.91398 7.63953 8.93487C7.62885 8.95576 7.55764 8.98082 7.48644 8.99335C7.15888 9.04766 6.8883 9.11868 6.8705 9.14792C6.85981 9.16463 6.79573 9.1897 6.72808 9.20223C6.56431 9.23147 6.30084 9.30666 6.21183 9.35262C6.17267 9.36933 6.07654 9.4111 5.99821 9.43617C5.91988 9.46541 5.79171 9.51554 5.71338 9.55314C5.63506 9.58656 5.53893 9.63251 5.49976 9.64922C5.4606 9.66593 5.33243 9.73695 5.21493 9.79961C4.79837 10.0335 4.65596 10.2341 4.71292 10.5056C4.73785 10.6226 4.88382 10.8189 4.94435 10.8189C4.96571 10.8189 4.98351 10.8356 4.98351 10.8607C4.98351 10.8816 5.02268 10.9108 5.07252 10.9275C5.12236 10.9401 5.16153 10.9693 5.16153 10.9902C5.16153 11.0111 5.18289 11.0278 5.20781 11.0278C5.23274 11.0278 5.33955 11.0737 5.43924 11.1322C5.54249 11.1907 5.65642 11.2367 5.69202 11.2367C5.73118 11.2367 5.77391 11.2534 5.78459 11.2784C5.79527 11.2993 5.85224 11.3202 5.91276 11.3202C5.96973 11.3202 6.01601 11.3369 6.01601 11.3536C6.01601 11.3745 6.10146 11.4121 6.20471 11.4372C6.3044 11.4622 6.43969 11.4957 6.49666 11.5082C6.55719 11.5249 6.63551 11.55 6.67468 11.5709C6.71384 11.5917 6.89186 11.6377 7.06631 11.6753C7.24433 11.7129 7.43659 11.7588 7.49712 11.7839C7.55764 11.8048 7.66445 11.8215 7.73566 11.8215C7.80687 11.8215 7.89944 11.8382 7.94572 11.8633C7.99201 11.8842 8.18782 11.9259 8.38364 11.9468C8.57946 11.9719 8.86785 12.0095 9.02451 12.0304C9.86475 12.139 10.4024 12.1641 12.0686 12.1641C13.7455 12.1682 14.2689 12.1432 15.1305 12.0304C15.807 11.9427 16.0526 11.9051 16.2164 11.8675C16.3161 11.8424 16.4443 11.8132 16.5012 11.8048C16.5618 11.7923 16.6579 11.7756 16.7149 11.7588C16.7754 11.7463 16.9498 11.7045 17.1065 11.6711C17.2632 11.6335 17.4234 11.5876 17.4625 11.5709C17.5017 11.5541 17.6548 11.504 17.8008 11.4664C17.9467 11.4246 18.0927 11.3745 18.1212 11.362C18.1497 11.3453 18.2636 11.2993 18.3704 11.2575C18.6624 11.1489 19.0647 10.9066 19.2249 10.7479C19.3388 10.6309 19.3673 10.5766 19.3673 10.4596C19.3673 10.3803 19.3424 10.255 19.3104 10.1881C19.2569 10.0586 18.8867 9.74948 18.7371 9.7077C18.6909 9.69099 18.6552 9.66593 18.6552 9.64504C18.6552 9.62415 18.6303 9.60744 18.6018 9.60744C18.5591 9.60744 18.4096 9.5406 18.228 9.44452C18.0073 9.32337 16.9036 8.98082 16.7327 8.98082C16.6757 8.98082 16.6223 8.96411 16.6116 8.94322C16.6009 8.92234 16.5084 8.89727 16.4051 8.88474C16.3019 8.87221 16.074 8.83043 15.896 8.79283C15.2587 8.65498 14.4647 8.54219 13.6886 8.47535C13.0619 8.41686 11.3387 8.39597 11.1607 8.43775ZM12.6489 8.7803C12.9444 8.88474 13.0548 9.20223 12.8626 9.39439C12.8127 9.4487 12.6667 9.51972 12.5457 9.55731C12.3356 9.6158 12.2965 9.6158 12.065 9.54896C11.9262 9.51136 11.7838 9.44452 11.7482 9.40692C11.6164 9.26489 11.6271 9.03513 11.7695 8.86803C11.8407 8.78448 12.211 8.6884 12.3712 8.71346C12.4496 8.72599 12.5742 8.75524 12.6489 8.7803ZM8.63287 9.35679C8.64355 9.37768 8.69339 9.39857 8.73968 9.39857C8.97466 9.39857 9.34138 9.73695 9.38054 9.99177C9.40902 10.1756 9.31645 10.4304 9.1954 10.4972C9.15268 10.5181 9.11351 10.5557 9.11351 10.5766C9.11351 10.5933 9.07435 10.61 9.02807 10.61C8.98178 10.61 8.9355 10.6309 8.92838 10.656C8.91058 10.7187 8.34448 10.7646 8.03117 10.7312C7.76414 10.7019 7.57188 10.6017 7.39743 10.4095C7.34046 10.351 7.29774 10.2758 7.29774 10.2466C7.29774 10.2174 7.2835 10.1923 7.26213 10.1923C7.24433 10.1923 7.22653 10.1255 7.22653 10.0461C7.22653 9.96671 7.24433 9.89987 7.26213 9.89987C7.2835 9.89987 7.29774 9.8748 7.29774 9.84556C7.3013 9.69935 7.69294 9.39857 7.88163 9.39857C7.93148 9.39857 7.98132 9.37768 7.99201 9.35679C8.00269 9.33173 8.14866 9.31502 8.31244 9.31502C8.47621 9.31502 8.62219 9.33173 8.63287 9.35679ZM15.3441 9.87898C15.5827 9.97088 15.7963 10.2132 15.8248 10.4262C15.8604 10.7103 15.7464 10.8732 15.3797 11.0612C15.1412 11.1865 14.479 11.1865 14.2404 11.0654C13.8737 10.8732 13.7776 10.7521 13.7776 10.4638C13.7776 10.3427 13.8061 10.28 13.9342 10.1296C14.0232 10.0294 14.1372 9.93329 14.1941 9.91658C14.2475 9.89987 14.3116 9.8748 14.3294 9.85391C14.4149 9.77872 15.1163 9.79543 15.3441 9.87898ZM17.6049 10.0335C17.7153 10.1756 17.7153 10.2508 17.6121 10.3761C17.5053 10.5014 17.2845 10.5474 17.0958 10.4847C16.9071 10.4262 16.8395 10.3427 16.8395 10.1714C16.8395 9.96671 16.9605 9.89569 17.2774 9.9124C17.4839 9.92075 17.5302 9.93746 17.6049 10.0335ZM6.19403 10.067C6.19403 10.0879 6.21183 10.1087 6.23319 10.1087C6.2866 10.1087 6.36849 10.2341 6.37205 10.3134C6.37205 10.4179 6.25812 10.5265 6.14418 10.5265C6.01245 10.5265 5.96973 10.4972 5.91276 10.3719C5.85224 10.2341 5.86292 10.2006 5.99109 10.1087C6.1157 10.0168 6.19403 10.0001 6.19403 10.067ZM11.7304 10.3176C11.9369 10.4221 12.0294 10.5474 12.033 10.7228C12.033 10.8774 11.9404 11.0278 11.8514 11.0278C11.8158 11.0278 11.7838 11.0487 11.7767 11.0779C11.7517 11.1615 11.0788 11.1489 10.9222 11.057C10.5733 10.8607 10.6089 10.5014 11.0005 10.2884C11.15 10.209 11.5417 10.2215 11.7304 10.3176Z" fill="currentColor"/>
  </g>
  <defs>
    <clipPath id="clip0_80417_5">
      <rect width="24" height="24" fill="white"/>
    </clipPath>
  </defs>
</svg>
